<svg width="1148" height="144" viewBox="0 0 1148 144" fill="none" xmlns="http://www.w3.org/2000/svg">
<g clip-path="url(#clip0_401_90)">
<path d="M602.2 9.40015H636.4L669.8 74.3001H674L707.6 9.40015H742.9V141.8H719.3V53.5001H715.1L684.2 115.9H660.8L630.1 53.5001H625.9V141.8H602.3V9.40015H602.2Z" fill="white"/>
<path d="M865.9 101.1H783.6C787.6 111.7 799 118.4 814.5 118.4C826 118.4 836.2 115.1 840.6 110.9H864.8C857.5 130.7 837.9 144.1 813.9 144.1C783.6 144.1 760.9 122 760.9 92.9002C760.9 63.8002 783.5 41.7002 813.7 41.7002C843.8 41.7002 866.5 63.6002 866.5 93.5002C866.5 95.9002 866.3 98.8002 865.9 101.1ZM783.8 84.4002H844.1C840.3 73.8002 828.4 67.3002 813.8 67.3002C799.3 67.3002 787.8 74.1002 783.8 84.4002Z" fill="white"/>
<path d="M982.2 3.6001V141.8H960.3V122.2C953 135.6 940.5 144.1 924.6 144.1C897.7 144.1 877.4 122 877.4 92.9001C877.4 63.8001 897.7 41.7001 924.6 41.7001C940.5 41.7001 953 50.1001 960.3 63.6001V3.6001H982.2ZM960.3 92.9001C960.3 79.7001 947.4 69.7001 930.2 69.7001C912.9 69.7001 900.3 79.7001 900.3 92.9001C900.3 106.1 913 116.1 930.2 116.1C947.5 116.1 960.3 106.1 960.3 92.9001Z" fill="white"/>
<path d="M997.7 15.5001C997.7 6.9001 1005.4 0.100098 1015.4 0.100098C1025.6 0.100098 1033.2 6.8001 1033.2 15.5001C1033.2 24.3001 1025.5 31.0001 1015.4 31.0001C1005.4 31.1001 997.7 24.4001 997.7 15.5001ZM1004.4 43.9001H1026.3V141.8H1004.4V43.9001Z" fill="white"/>
<path d="M1148.2 43.9002V141.8H1126.3V122.2C1119 135.6 1106.5 144.1 1090.6 144.1C1063.7 144.1 1043.4 122 1043.4 92.9002C1043.4 63.8002 1063.7 41.7002 1090.6 41.7002C1106.5 41.7002 1119 50.1002 1126.3 63.6002V43.9002H1148.2ZM1126.3 92.9002C1126.3 79.7002 1113.4 69.7002 1096.2 69.7002C1078.9 69.7002 1066.3 79.7002 1066.3 92.9002C1066.3 106.1 1079 116.1 1096.2 116.1C1113.4 116.1 1126.3 106.1 1126.3 92.9002Z" fill="white"/>
<path d="M0.400024 101.5H24.8C24.8 110.1 38.2 116.9 56.5 116.9C72.4 116.9 85.1 111.7 85.1 104C85.1 94.2 65.1 90.8001 48.1 88.1001C23.9 84.5001 2.80003 72 2.80003 48.2C2.80003 23.6 25.4 7.30005 54.6 7.30005C84.9 7.30005 107.2 25.1001 107.2 48.4001H82.8C82.8 40.7001 70.7 34.8001 53.8 34.8001C38.6 34.8001 27.3 39.6 27.3 46.7C27.3 56.3 50.9 60.3001 61.8 61.9001C87.5 65.7001 109.6 77.1001 109.6 101.6C109.6 127.5 85.6 144.4 55.5 144.4C23.8 144.3 0.400024 125.9 0.400024 101.5Z" fill="white"/>
<path d="M225.9 44.2001V142H204V122.4C196.7 135.8 184.2 144.3 168.3 144.3C141.4 144.3 121.1 122.2 121.1 93.1001C121.1 64.0001 141.4 41.9001 168.3 41.9001C184.2 41.9001 196.7 50.3001 204 63.8001V44.2001H225.9ZM204 93.1001C204 79.9001 191.1 69.9001 173.9 69.9001C156.6 69.9001 144 79.9001 144 93.1001C144 106.3 156.7 116.3 173.9 116.3C191.2 116.3 204 106.3 204 93.1001Z" fill="white"/>
<path d="M241.4 15.8001C241.4 7.20014 249.1 0.400146 259.1 0.400146C269.3 0.400146 276.9 7.10014 276.9 15.8001C276.9 24.6001 269.2 31.3001 259.1 31.3001C249.1 31.3001 241.4 24.6001 241.4 15.8001ZM248.2 44.2001H270V142H248.1V44.2001H248.2Z" fill="white"/>
<path d="M286.5 109H308C308 115.1 318 119.7 331.8 119.7C345.4 119.7 354.8 116.2 354.8 111.4C354.8 106.2 343.1 104.3 325.6 102.2C305.8 99.9002 288 91.6002 288 72.8002C288 52.5002 308 41.7002 331.2 41.7002C356.1 41.7002 374.8 56.7002 374.8 75.7002H353.1C353.1 70.3002 343.5 66.3002 331 66.3002C318.3 66.3002 309.7 69.4002 309.7 73.8002C309.7 78.4002 320.4 80.9002 338.7 83.0002C357.3 85.1002 376.3 92.4002 376.3 111.8C376.3 132.7 356.2 144.2 331.4 144.2C305.3 144.3 286.5 128.6 286.5 109Z" fill="white"/>
<path d="M491.9 101.4H409.6C413.6 112 425 118.7 440.5 118.7C452 118.7 462.2 115.4 466.6 111.2H490.8C483.5 131 463.9 144.4 439.9 144.4C409.6 144.4 386.9 122.3 386.9 93.2002C386.9 64.1002 409.5 42.0002 439.7 42.0002C469.8 42.0002 492.5 63.9002 492.5 93.8002C492.4 96.2002 492.2 99.1002 491.9 101.4ZM409.7 84.7002H470C466.2 74.1002 454.3 67.6002 439.7 67.6002C425.3 67.6002 413.8 74.3002 409.7 84.7002Z" fill="white"/>
<path d="M502 15.8001C502 7.20014 509.7 0.400146 519.7 0.400146C529.9 0.400146 537.5 7.10014 537.5 15.8001C537.5 24.6001 529.8 31.3001 519.7 31.3001C509.7 31.3001 502 24.6001 502 15.8001ZM508.7 44.2001H530.6V142H508.7V44.2001Z" fill="white"/>
</g>
<defs>
<clipPath id="clip0_401_90">
<rect width="1148" height="144" fill="white"/>
</clipPath>
</defs>
</svg>
