<svg width="96" height="16" viewBox="0 0 96 16" fill="none" xmlns="http://www.w3.org/2000/svg">
<path fill-rule="evenodd" clip-rule="evenodd" d="M35.0579 0H37.2233V2.75201H39.7992V4.60802H37.2233V9.40806C37.2233 10.0054 37.3829 10.4534 37.6793 10.7521C37.9756 11.0507 38.3859 11.2214 38.9102 11.2214L39.7992 11.2427V13.1201H38.9102H38.7962C37.6336 13.1201 36.7219 12.8214 36.0608 12.2241C35.3998 11.6267 35.0579 10.7307 35.0579 9.55735V4.60802H32.824V2.75201H35.0579V0ZM3.48758 6.67662L5.81263 7.14597C7.63621 7.52997 8.54801 8.44726 8.54801 9.91926C8.54801 10.858 8.18328 11.6046 7.43106 12.1593C6.67884 12.714 5.67586 12.9913 4.44495 12.9913C3.25963 12.9913 2.25667 12.7353 1.43606 12.202C0.615455 11.6686 0.159563 10.9433 0.0227946 10.0046L0 9.83397H1.86916C2.02872 10.3673 2.32505 10.7726 2.75815 11.0713C3.25963 11.3913 3.87509 11.562 4.60452 11.562C5.31115 11.562 5.85822 11.4126 6.26852 11.1353C6.65602 10.858 6.86117 10.474 6.86117 10.0046C6.86117 9.62062 6.74722 9.32197 6.51927 9.12997C6.29132 8.91662 5.90381 8.76726 5.35674 8.66062L3.03169 8.21262C1.23091 7.80726 0.319125 6.91126 0.319125 5.48193C0.319125 4.58593 0.683836 3.88193 1.41326 3.30592C2.1199 2.77258 3.07727 2.49525 4.2626 2.49525C5.35674 2.49525 6.26852 2.75125 6.99794 3.26326C7.68178 3.73259 8.11489 4.35126 8.34286 5.11926H6.51927C6.38249 4.8206 6.15455 4.58593 5.88101 4.37259C5.42512 4.05259 4.87805 3.88193 4.2398 3.88193C3.60155 3.88193 3.10007 4.03126 2.71256 4.30859C2.32505 4.60726 2.14269 4.96993 2.14269 5.41793C2.14269 5.7806 2.23387 6.05793 2.46182 6.24991C2.66697 6.44191 3.00889 6.59126 3.48758 6.67662ZM62.2979 5.7599C62.5258 3.77589 64.5774 2.66655 66.3097 2.66655C67.4492 2.66655 68.4066 3.02922 69.2272 3.75455C70.0254 4.47989 70.4127 5.41856 70.4127 6.59188V11.9039V13.0133H68.1791V7.01858C68.1791 6.29323 67.9509 5.71723 67.4952 5.26923C67.0389 4.82122 66.4465 4.60789 65.7399 4.60789C64.8509 4.60789 64.1442 4.90656 63.62 5.48256C63.0957 6.05857 62.845 6.91188 62.845 8.02123V13.0133H60.5883V7.01858C60.5883 6.29323 60.3603 5.71723 59.9045 5.26923C59.4486 4.82122 58.8559 4.60789 58.1493 4.60789C57.2603 4.60789 56.5764 4.90656 56.0522 5.48256C55.5279 6.05857 55.2771 6.91188 55.2771 8.02123V13.0133H53.0205V2.64521H55.2771V5.54656C55.3911 4.67189 56.85 2.68788 58.7191 2.66655C59.4942 2.66655 60.2008 2.83722 60.839 3.15722C61.4545 3.47722 62.3434 4.75722 62.2979 5.7599ZM24.0934 5.09862C24.5264 3.43462 26.2588 2.73061 27.8316 2.73061C29.1309 2.73061 30.1795 3.13594 30.9545 3.92529C31.7523 4.71462 32.1399 5.73863 32.1399 6.99729V13.0774H29.8604V7.40265C29.8604 6.59194 29.6324 5.90929 29.1538 5.41863C28.6979 4.92796 28.0824 4.67196 27.3074 4.67196C26.3044 4.67196 25.5294 4.99196 24.9595 5.63196C24.3897 6.27194 24.0934 7.18929 24.0934 8.42665V13.0986H21.8366V2.75194H24.0934V5.09862ZM78.4807 2.92211C76.4522 2.90078 74.7879 4.52212 74.7879 6.03679V2.75144H72.6227V3.77545V15.9995H74.7879V9.8128C74.7879 11.5195 76.9762 12.9488 78.549 12.9488C79.9627 12.9488 81.1706 12.4795 82.174 11.5195C83.1768 10.5595 83.6785 9.34345 83.6785 7.85015C83.6785 6.3568 83.1768 5.14079 82.151 4.18078C81.1476 3.19944 79.8713 2.94344 78.4807 2.92211ZM80.6005 10.2394C79.9627 10.8368 79.1645 11.1568 78.1848 11.1568C77.2728 11.1568 76.4975 10.8582 75.8137 10.2394C75.1299 9.6208 74.7879 8.83145 74.7879 7.85015C74.7879 6.8688 75.1299 6.07946 75.8137 5.46079C76.4975 4.84212 77.2958 4.54345 78.1848 4.54345C79.1645 4.54345 79.9627 4.84212 80.6005 5.46079C81.239 6.05812 81.5579 6.8688 81.5579 7.87145C81.5809 8.83145 81.239 9.64215 80.6005 10.2394ZM14.9993 2.73061C13.472 2.73061 12.1955 3.22128 11.147 4.18129C10.0984 5.16262 9.57416 6.39994 9.57416 7.936C9.57416 9.45065 10.0984 10.688 11.147 11.648C12.1955 12.608 13.4492 13.0986 14.9081 13.0986C16.0934 13.0986 17.1192 12.8426 18.0082 12.3094C18.8971 11.7974 19.5354 11.0293 19.9685 10.0053L18.0082 9.62129C17.3927 10.752 16.3669 11.328 14.9309 11.328C14.133 11.328 13.4265 11.072 12.8109 10.5386C12.1955 10.0053 11.8536 9.30129 11.7624 8.42665H20.2648V7.72265C20.2192 6.27194 19.6722 5.07729 18.6692 4.15995C17.6434 3.19994 16.4353 2.73061 14.9993 2.73061ZM11.808 6.93329C11.9676 6.18665 12.3551 5.58929 12.9705 5.18396C13.586 4.75729 14.2698 4.54395 14.9993 4.54395C15.7515 4.54395 16.3897 4.75729 16.914 5.16262C17.4383 5.56796 17.803 6.16529 17.9626 6.93329H11.808ZM44.221 3.07217C42.8305 3.6055 41.8504 4.50151 41.2805 5.73884C40.7106 6.99754 40.7335 8.32018 41.3261 9.70689C41.9188 11.0935 42.8989 12.0322 44.2438 12.5442C45.5887 13.0562 46.9336 13.0562 48.2556 12.5442C49.327 12.1389 50.1704 11.5415 50.7631 10.7522C51.3557 9.96289 51.6521 9.04554 51.6293 7.95754L49.669 8.27754C49.5778 9.51489 48.8484 10.4109 47.5262 10.9015C46.7968 11.1789 46.0446 11.1789 45.2696 10.9229C44.5174 10.6455 43.9019 10.1335 43.4688 9.36554L51.219 6.40019L50.9454 5.76018C50.3072 4.45884 49.3498 3.56284 48.0733 3.05083C46.8196 2.5815 45.5203 2.5815 44.221 3.07217ZM42.9901 8.04283C42.8305 7.29619 42.9445 6.63483 43.3549 6.03751C43.7423 5.44018 44.2894 5.01351 44.9504 4.75751C45.6343 4.50151 46.2953 4.45884 46.9564 4.65084C47.6174 4.84284 48.1645 5.24818 48.6204 5.90951L42.9901 8.04283ZM90.1979 2.79518C91.7477 2.79518 93.047 3.26452 94.1188 4.20319C95.1899 5.14186 95.714 6.3792 95.714 7.8512C95.714 9.3232 95.1899 10.5392 94.1188 11.4992C93.047 12.4592 91.7477 12.9286 90.1979 12.9286C88.6481 12.9286 87.3258 12.4592 86.2547 11.4992C85.1829 10.5606 84.6358 9.34455 84.6358 7.8512C84.6358 6.35785 85.1829 5.14186 86.2547 4.20319C87.3258 3.26452 88.6481 2.79518 90.1979 2.79518ZM90.1979 11.1579C91.1099 11.1579 91.9075 10.8592 92.5913 10.2406C93.2752 9.62191 93.6171 8.83255 93.6171 7.8512C93.6171 6.86985 93.2752 6.08053 92.5913 5.46186C91.9075 4.84319 91.1099 4.54452 90.1979 4.54452C89.2405 4.54452 88.443 4.84319 87.7591 5.46186C87.0976 6.08053 86.7557 6.86985 86.7557 7.8512C86.7557 8.83255 87.0753 9.62191 87.7591 10.2406C88.443 10.8592 89.2636 11.1579 90.1979 11.1579Z" fill="white"/>
</svg>
