<?xml version="1.0" encoding="UTF-8" standalone="no"?>
<!DOCTYPE svg PUBLIC "-//W3C//DTD SVG 1.1//EN" "http://www.w3.org/Graphics/SVG/1.1/DTD/svg11.dtd">
<svg xmlns="http://www.w3.org/2000/svg" version="1.1" viewBox="0.00 0.00 268.00 150.00">
<path fill="#ffffff" d="
  M 133.13 0.00
  L 135.02 0.00
  Q 136.65 0.47 138.34 0.52
  Q 140.32 0.58 141.59 0.97
  Q 144.48 1.86 147.33 2.59
  Q 147.83 2.71 148.07 3.16
  Q 148.37 3.71 148.99 3.55
  Q 149.42 3.44 149.74 3.74
  Q 151.39 5.32 153.79 6.10
  Q 154.26 6.26 154.61 6.63
  Q 155.81 7.91 157.14 8.98
  Q 158.47 10.05 159.80 11.44
  Q 170.03 22.13 170.01 39.06
  Q 169.98 75.75 170.02 113.81
  Q 170.03 121.78 177.25 126.35
  Q 177.73 126.66 178.29 126.53
  Q 178.69 126.43 178.84 126.81
  Q 179.02 127.27 179.49 127.42
  Q 184.60 129.00 189.37 127.52
  Q 193.86 126.12 196.32 122.60
  Q 199.07 118.66 199.13 113.96
  Q 199.50 87.98 199.08 58.81
  Q 198.89 46.11 199.11 35.98
  Q 199.34 25.23 203.31 18.07
  Q 207.88 9.81 215.49 5.28
  Q 226.13 -1.04 238.71 0.67
  Q 243.31 1.30 247.23 3.40
  A 0.99 0.97 -37.1 0 0 247.93 3.49
  Q 248.65 3.31 248.91 3.97
  Q 249.08 4.43 249.56 4.55
  Q 249.76 4.60 249.95 4.53
  Q 250.53 4.34 250.88 4.84
  Q 251.58 5.86 252.81 6.15
  A 1.75 1.73 77.4 0 1 253.79 6.78
  Q 254.89 8.17 256.36 9.00
  C 257.51 9.66 258.16 11.09 259.21 12.04
  Q 260.34 13.06 261.30 14.44
  Q 267.42 23.21 268.00 34.13
  L 268.00 147.94
  L 247.27 147.95
  A 1.03 1.02 90.0 0 1 246.25 146.92
  Q 246.26 89.89 246.23 34.86
  Q 246.22 27.82 241.18 24.39
  Q 233.55 19.19 226.51 23.80
  C 223.03 26.08 220.64 30.76 220.62 34.71
  C 220.50 61.76 220.91 88.83 220.36 115.85
  Q 220.21 123.25 215.91 131.75
  C 215.51 132.54 214.67 132.99 214.45 133.75
  Q 214.22 134.54 213.68 135.18
  C 209.21 140.43 205.37 143.57 199.80 146.49
  Q 198.42 147.21 196.89 147.59
  C 194.29 148.22 192.35 149.13 189.47 149.43
  Q 187.16 149.66 184.87 150.00
  L 182.99 150.00
  Q 172.97 149.08 164.29 143.86
  C 162.61 142.85 161.78 141.57 160.35 140.39
  Q 158.60 138.96 157.08 137.12
  Q 151.79 130.71 149.56 122.13
  Q 148.17 116.78 148.20 106.12
  Q 148.29 70.92 148.24 36.08
  Q 148.24 32.83 147.27 30.19
  Q 145.52 25.43 140.34 23.05
  Q 136.30 21.18 130.90 22.16
  Q 126.35 22.98 123.35 26.53
  Q 119.74 30.79 119.75 37.34
  Q 119.77 77.21 119.72 114.37
  Q 119.71 121.92 116.61 129.37
  Q 116.43 129.80 116.44 130.25
  Q 116.44 130.69 116.04 130.92
  Q 115.68 131.12 115.53 131.51
  Q 114.11 135.22 109.46 139.71
  Q 99.85 148.99 86.84 150.00
  L 84.01 150.00
  Q 75.07 149.40 67.42 144.94
  C 66.39 144.34 65.74 143.50 64.74 143.09
  C 62.71 142.27 60.70 139.69 59.08 138.14
  C 56.44 135.62 54.77 131.78 53.16 128.49
  C 52.62 127.37 52.97 126.27 52.15 125.26
  Q 51.72 124.73 51.75 124.05
  Q 51.79 123.26 51.37 122.58
  Q 51.04 122.05 51.02 121.43
  C 50.89 117.42 50.20 113.56 50.22 109.54
  Q 50.31 74.54 50.21 35.32
  Q 50.20 31.39 48.05 28.23
  Q 44.87 23.56 39.52 22.17
  Q 38.76 21.98 38.00 22.03
  C 36.55 22.12 35.61 21.53 34.15 21.88
  Q 29.96 22.89 26.91 25.17
  Q 22.11 28.76 22.05 35.61
  Q 21.92 50.84 22.06 67.65
  C 22.06 68.27 21.77 68.88 21.77 69.44
  Q 21.58 98.77 21.89 124.03
  Q 22.02 134.44 21.99 146.53
  A 1.48 1.48 0.0 0 1 20.51 148.00
  L 0.55 148.00
  A 0.30 0.30 0.0 0 1 0.25 147.70
  L 0.00 65.87
  L 0.00 38.02
  Q 0.41 34.15 0.97 30.33
  Q 1.61 25.93 2.90 22.93
  Q 11.11 3.84 31.36 0.58
  Q 42.93 -1.29 54.61 5.13
  Q 55.91 5.84 56.96 6.89
  C 57.90 7.83 59.11 8.15 60.08 9.06
  C 65.06 13.77 69.92 21.63 71.17 28.82
  Q 71.72 31.98 71.73 35.85
  Q 71.77 74.35 71.74 114.50
  Q 71.73 117.64 73.45 121.27
  C 75.75 126.14 81.05 128.67 86.16 128.24
  Q 93.51 127.63 96.95 121.05
  Q 98.28 118.49 98.28 114.56
  Q 98.25 76.42 98.24 40.35
  Q 98.24 36.18 98.58 32.32
  Q 98.92 28.58 100.05 25.31
  Q 101.52 21.04 103.94 16.65
  C 105.08 14.60 106.89 13.20 108.32 11.36
  Q 109.19 10.25 110.33 9.33
  Q 114.58 5.93 115.85 5.10
  Q 122.64 0.69 133.13 0.00
  Z"
/>
</svg>
