<?xml version="1.0" encoding="UTF-8"?>
<svg id="Capa_1" data-name="Capa 1" xmlns="http://www.w3.org/2000/svg" viewBox="0 0 522.58 185.15">
  <defs>
    <style>
      .cls-1 {
        fill: #1c1c1c;
        stroke-width: 0px;
      }
    </style>
  </defs>
  <path class="cls-1" d="m167.13,18.15h-24.19c-.21,0-.38-.17-.38-.38V.38c-.01-.21.16-.38.37-.38h70.06c.21.01.38.18.38.39v17.4c0,.21-.17.38-.38.38l-24.38-.04c-.21,0-.38.17-.38.38h0s-.01,145.66-.01,145.66c0,.21.17.38.38.38h0l24.39-.03c.21,0,.38.17.38.38h0l-.02,17.42c0,.21-.17.38-.38.38h-70.03c-.21,0-.38-.18-.38-.39v-17.4c0-.21.17-.38.38-.38h24.19c.21,0,.38-.16.38-.37V18.53c0-.21-.17-.38-.38-.38Z"/>
  <path class="cls-1" d="m459.14,157.48c8.76,2.17,15.58.24,20.46-5.81,2.41-2.99,3.62-6.8,3.64-11.43.13-31.79.05-61.54-.24-89.25-.06-5.64.28-10.72,1.01-15.23,1.95-11.99,7.93-21.38,17.96-28.17,6.11-4.15,12.8-6.43,20.06-6.85.37-.02.55.15.55.52v25.19c0,.4-.19.65-.58.76-8.31,2.25-12.37,9.67-12.32,18,.23,38.81.12,71.55-.34,98.24-.07,4.17-.94,8.5-2.63,12.99-1.69,4.51-3.84,8.34-6.46,11.49-7.92,9.55-17.8,15.13-29.64,16.76-5.31.73-10.23.53-14.74-.58-6.52-1.61-14.41-4.56-19.21-9.44-2.1-2.15-4.46-3.84-6.3-6.32-4.51-6.09-7.47-12.59-8.87-19.48-.8-3.97-1.2-8.74-1.19-14.31.06-27.1.1-56.49.12-88.17,0-3.63-.41-6.52-1.24-8.66-2.79-7.19-8.43-10.75-16.9-10.69-4.71.03-8.63,1.56-11.74,4.57-4.59,4.44-5.68,9.91-5.66,16.16.14,32.45.14,63.95.01,94.5-.02,4.21-.57,8.17-1.93,12.1-.81,2.32-1.48,5.93-2.93,7.83-.69.9-.9,2.1-1.6,3.06-13.88,19.24-36.46,25.85-57.83,13.91-.73-.41-1.14-1.02-1.84-1.39-5.36-2.85-11.24-8.61-13.92-14.73-.85-1.92-2.11-3.54-2.59-5.54-.81-3.44-2.33-6.45-2.57-10.05-.28-4.25-.74-8.35-.74-12.62.07-29.45.14-59.95-.03-91.2-.06-10.28-9.02-17.36-18.92-16.51-4.53.39-8.56,2.38-12.07,5.98-2.97,3.05-3.87,7.81-3.89,12.1-.05,12.11-.04,24.73.01,37.84.01,1.15-.31,2.15-.33,3.29-.51,31.12.17,62.49.31,94.54,0,1.09-.87,1.97-1.96,1.98,0,0,0,0-.01,0l-24.5-.02c-.24,0-.43-.19-.43-.43h0c-.21-46.93-.31-91.4-.29-133.42,0-8.35,1.91-18.56,6.19-25.95,6.61-11.42,16.14-18.57,28.58-21.45,10.99-2.55,21.57-1.14,31.74,4.22,1.41.74,2.67,1.63,3.8,2.67,1.51,1.38,3.39,2.04,4.86,3.6,8.2,8.74,13.41,18.73,13.43,30.9.04,33.17.06,65.71.06,97.6,0,3.07.75,6.18,2.26,9.32,4.41,9.16,17.65,11.42,25.2,4.64,3.83-3.43,5.62-7.97,5.61-13.27-.05-32.09-.07-63.69-.04-94.79,0-4.89.39-8.8,1.18-11.75,1.47-5.53,4.04-12.14,7.68-16.7,3.18-3.98,7.02-7.56,11.51-10.75,6.72-4.76,13.79-6.37,21.83-7.1,1.69-.15,3.38-.04,5.05.33,2.36.52,4.79.26,7.14,1.01,1.95.62,3.94,1.18,5.99,1.68.39.09.72.28,1,.57.41.42.9.65,1.49.69.35.03.66.16.92.39,1.09.98,2.34,1.75,3.76,2.32,2.16.87,3.38,2.64,5.18,4.04,7.16,5.57,12.01,14.19,14.37,23.33,1.03,3.97,1.53,9.8,1.52,17.48-.05,27.81-.1,55.97-.15,84.49,0,4.86.42,8.34,1.28,10.45,1.71,4.17,4.55,7.29,8.5,9.37.16.08.34.11.52.08.34-.06.6.04.78.31.26.39.62.65,1.07.76Z"/>
  <path class="cls-1" d="m21.32,163.57c0,.2.17.37.37.37h89.67c1.73,0,3.13,1.4,3.13,3.12v12.44c-.01,1.77-1.44,3.2-3.21,3.2H3.12c-1.72,0-3.11-1.41-3.11-3.13H.01s-.01-175.85-.01-175.85C0,1.51,1.1.4,3.31.41h15.21c1.55,0,2.81,1.26,2.81,2.81v160.35Z"/>
</svg>