<?xml version="1.0" encoding="UTF-8"?>
<svg id="Capa_1" data-name="Capa 1" xmlns="http://www.w3.org/2000/svg" viewBox="0 0 200.37 153.19">
  <defs>
    <style>
      .cls-1 {
        stroke-width: 0px;
      }
    </style>
  </defs>
  <path class="cls-1" d="m200.37.26c-12.84.45-25.44,7.73-31.22,21.99-1.69,4.16-2.53,9.67-2.5,16.53.09,26.32.11,52.09.07,77.32-.03,15.08-18.36,20.18-27.1,8.75-1.71-2.26-2.58-4.89-2.59-7.9-.07-25.04-.06-51.15.02-78.32C137.1,15.62,119.32-.01,100.16,0c-8.63,0-17.55,3.19-25.23,10.3-7.44,6.9-11.34,16.78-11.32,27.12.07,29.23.08,56.12.05,80.67,0,7.88-7.48,13.89-15.08,12.89-7.28-.93-12.05-6.9-12.05-14.18.01-27.32.03-54.68.05-82.08,0-7.97-3.57-16.12-8.73-22.01C20.26,4.04,10.13.05.15.12c-.05,0-.1,0-.15,0v22.08c.05,0,.11,0,.16,0,7.55-.08,14.46,5.79,14.46,14.7-.02,27.3-.02,53.61.02,78.93.02,12.19,4.2,21.79,12.52,28.8,13.98,11.76,33.92,11.4,47.22-1.03,8.78-8.22,11.35-17.85,11.29-29.85-.15-24.74-.17-50.04-.07-75.92.04-10.38,7.34-15.5,14.62-15.6,7.29-.09,14.56,4.84,14.56,14.58.01,25.97,0,51.96-.03,77.98-.03,21.08,15.57,38.31,36.83,38.36,19.93.03,36.85-15.8,36.9-35.89.07-24.94.06-51.47-.03-79.61-.02-5.5,1.66-10.66,6.6-13.59,1.78-1.06,3.56-1.7,5.32-1.93V.26Z"/>
</svg>