<?xml version="1.0" encoding="UTF-8"?>
<svg id="Capa_1" data-name="Capa 1" xmlns="http://www.w3.org/2000/svg" viewBox="0 0 205.3 179.93">
  <defs>
    <style>
      .cls-1 {
        stroke-width: 0px;
      }
    </style>
  </defs>
  <path class="cls-1" d="m205.3,38.51c-12.69-2.01-26.45,2.71-34.86,15.6-2.46,3.76-4.33,9.01-5.62,15.74-4.95,25.85-9.87,51.15-14.74,75.9-2.92,14.79-21.88,16.3-28.28,3.39-1.25-2.54-1.59-5.29-1.03-8.25,4.73-24.59,9.73-50.21,15.02-76.87,4.47-22.56-9.99-41.32-28.8-44.97-8.47-1.65-17.83-.23-26.74,5.28-8.63,5.35-14.34,14.3-16.3,24.45-5.53,28.7-10.66,55.09-15.4,79.19-1.51,7.74-10,12.2-17.27,9.77-6.96-2.31-10.5-9.08-9.11-16.22,5.24-26.81,10.5-53.66,15.77-80.55,1.53-7.82-.42-16.51-4.35-23.28C27.8,7.72,18.63,1.86,8.82.02c-.05,0-.1-.01-.15-.02l-4.23,21.67c.05,0,.11.01.16.02,7.42,1.36,13.08,8.45,11.38,17.2C10.73,65.68,5.69,91.51.88,116.37c-2.31,11.97-.06,22.19,6.77,30.66,11.46,14.22,31.11,17.69,46.55,8.03,10.19-6.39,14.56-15.35,16.79-27.13,4.59-24.31,9.42-49.15,14.47-74.52,2.03-10.18,10.17-13.81,17.34-12.51,7.17,1.3,13.36,7.54,11.5,17.1-4.96,25.49-9.95,51-14.97,76.53-4.07,20.68,7.94,40.58,28.81,44.7,19.56,3.85,39.19-8.45,43.09-28.15,4.84-24.46,9.91-50.51,15.21-78.14,1.04-5.4,3.67-10.14,9.08-12.07,1.95-.7,3.82-.99,5.59-.88l4.19-21.47Z"/>
</svg>