<?xml version="1.0" encoding="UTF-8"?>
<svg id="Capa_1" data-name="Capa 1" xmlns="http://www.w3.org/2000/svg" viewBox="0 0 161.89 90.54">
  <defs>
    <style>
      .cls-1 {
        fill: #fff;
        stroke-width: 0px;
      }
    </style>
  </defs>
  <path class="cls-1" d="m89.59,21.76c0-5.75-4.3-8.67-8.61-8.62s-8.62,3.08-8.64,9.22c-.06,15.29-.05,30.25.04,44.87.04,7.09-1.48,12.78-6.67,17.64-7.86,7.35-19.65,7.56-27.91.61-4.92-4.14-7.39-9.81-7.4-17.02-.02-14.97-.02-30.52-.01-46.65,0-7.53-8.35-11.39-14.21-6.54-3.24,2.68-2.93,5.88-2.94,9.55-.05,22.61-.06,43.94,0,63.97,0,.4-.2.6-.6.6H.65c-.39,0-.59-.2-.58-.59C.22,68.51.2,47.81,0,26.7c-.05-5.39.43-9.45,1.42-12.18C7.05-.96,27.16-5.11,38.21,7.52c3.05,3.48,5.16,8.3,5.16,13.01-.01,16.19-.02,32.36-.03,48.51,0,4.3,2.82,7.83,7.12,8.38,4.49.59,8.91-2.96,8.91-7.62.02-14.51.01-30.41-.03-47.68-.01-6.11,2.29-11.95,6.69-16.03C70.58,1.88,75.84,0,80.95,0c11.33,0,21.84,9.23,21.8,22.83-.05,16.06-.05,31.49,0,46.29,0,1.78.52,3.34,1.53,4.67,5.17,6.76,16,3.74,16.02-5.17.03-14.91.01-30.15-.04-45.7-.01-4.05.48-7.31,1.48-9.77,7.17-17.67,32.03-17.23,38.85.58.89,2.32,1.33,5.58,1.32,9.79-.03,23.79-.04,45.64-.03,65.57,0,.2-.1.3-.3.3h-12.19c-.4,0-.6-.2-.6-.59-.05-22.06-.06-44.61-.04-67.65,0-3.95-1.83-6.53-5.51-7.76-2.04-.68-4.1-.4-6.19.84-2.92,1.73-3.91,4.78-3.9,8.03.05,16.63.06,32.31.02,47.05-.03,11.87-10.03,21.23-21.81,21.21-12.57-.03-21.79-10.21-21.77-22.67.02-15.38.03-30.74.02-46.09Z"/>
</svg>